<?xml version="1.0" encoding="UTF-8" ?>
<!DOCTYPE svg PUBLIC "-//W3C//DTD SVG 1.1//EN" "http://www.w3.org/Graphics/SVG/1.1/DTD/svg11.dtd">
<svg width="85pt" height="85pt" viewBox="0 0 85 85" version="1.1" xmlns="http://www.w3.org/2000/svg">
<path fill="#ffffff" d=" M 0.00 0.00 L 40.43 0.00 C 30.17 0.99 19.99 5.29 12.75 12.75 C 5.27 19.98 0.98 30.19 0.00 40.47 L 0.00 0.00 Z" />
<path fill="#5a7a42" d=" M 40.43 0.00 L 44.48 0.00 C 55.93 1.40 67.33 6.23 74.66 15.43 C 80.82 22.39 83.93 31.46 85.00 40.58 L 85.00 44.41 C 83.95 56.24 78.48 67.83 69.03 75.23 C 62.42 81.01 53.72 83.79 45.15 85.00 L 38.86 85.00 C 29.45 83.29 20.07 79.66 13.26 72.74 C 5.45 65.59 1.24 55.29 0.00 44.92 L 0.00 40.47 C 0.98 30.19 5.27 19.98 12.75 12.75 C 19.99 5.29 30.17 0.99 40.43 0.00 Z" />
<path fill="#ffffff" d=" M 44.48 0.00 L 85.00 0.00 L 85.00 40.58 C 83.93 31.46 80.82 22.39 74.66 15.43 C 67.33 6.23 55.93 1.40 44.48 0.00 Z" />
<path fill="#dee8b8" d=" M 38.06 4.39 C 39.48 2.36 42.09 4.47 44.03 3.24 C 44.43 3.61 45.24 4.34 45.64 4.70 C 45.99 4.33 46.69 3.59 47.04 3.22 C 47.56 3.56 48.59 4.24 49.11 4.58 C 51.77 3.82 53.46 6.28 56.15 5.57 C 56.37 6.00 56.80 6.86 57.01 7.29 C 59.47 6.31 60.60 9.30 63.03 8.97 C 63.54 10.49 64.92 11.13 66.30 11.70 C 66.65 13.28 67.82 13.81 69.37 13.72 C 69.47 14.31 69.69 15.50 69.79 16.09 C 70.49 16.32 71.87 16.78 72.56 17.01 C 72.58 17.55 72.61 18.62 72.62 19.16 C 74.47 19.19 74.82 20.62 74.90 22.20 C 75.29 22.51 76.07 23.13 76.46 23.44 C 76.68 24.82 77.34 26.03 78.44 26.91 C 78.39 27.48 78.29 28.61 78.25 29.18 C 78.67 29.60 79.51 30.44 79.94 30.86 C 79.20 32.58 79.96 33.92 81.28 35.03 C 80.96 35.52 80.34 36.50 80.03 36.98 C 80.47 37.47 81.33 38.43 81.77 38.92 C 81.41 39.40 80.70 40.37 80.35 40.85 C 80.68 41.36 81.34 42.38 81.67 42.89 C 80.37 44.27 80.34 45.68 81.56 47.14 C 80.03 48.04 80.28 49.64 80.45 51.16 C 78.73 52.86 80.65 56.76 77.12 56.67 C 77.54 56.95 78.37 57.52 78.79 57.80 C 78.16 58.32 76.90 59.36 76.27 59.87 C 76.38 60.47 76.59 61.66 76.69 62.26 C 76.17 62.51 75.12 63.01 74.60 63.26 C 74.84 65.11 73.59 66.26 72.02 66.89 C 71.89 68.43 71.24 69.85 69.44 69.55 C 69.27 70.07 68.93 71.13 68.76 71.65 C 68.20 71.87 67.07 72.30 66.51 72.51 C 66.19 72.99 65.54 73.94 65.21 74.41 C 63.71 74.34 62.59 74.83 62.41 76.47 C 60.95 76.42 59.55 76.58 58.90 78.08 C 56.43 77.90 53.89 81.64 52.32 78.31 C 52.40 78.83 52.55 79.87 52.63 80.39 C 50.80 80.47 48.78 80.08 47.23 81.32 C 44.43 81.65 41.59 81.03 38.82 81.63 C 37.65 80.55 36.38 80.22 35.02 81.26 C 33.91 80.10 32.64 79.36 31.06 80.19 C 29.98 79.13 28.64 78.55 27.12 78.46 C 26.19 77.54 25.01 77.19 23.71 77.21 C 23.43 76.80 22.85 75.97 22.56 75.55 C 21.10 75.03 19.25 74.79 18.94 72.95 C 17.15 73.22 16.42 71.70 15.61 70.44 C 14.44 69.82 13.30 69.11 13.25 67.63 C 11.62 67.45 11.07 66.33 11.15 64.79 C 10.34 64.24 9.53 63.70 8.72 63.16 C 8.70 62.55 8.67 61.31 8.66 60.69 C 6.62 60.73 6.56 58.95 7.55 57.61 C 4.82 57.34 5.93 53.86 4.60 52.17 C 4.82 50.59 4.49 49.09 3.25 48.01 C 3.64 47.47 4.42 46.40 4.81 45.87 C 1.92 45.27 4.46 41.76 3.05 39.83 C 3.40 39.43 4.10 38.63 4.45 38.23 C 4.02 37.39 3.59 36.55 3.16 35.71 C 3.60 35.56 4.48 35.26 4.92 35.11 C 4.71 34.16 4.51 33.21 4.30 32.26 C 6.03 31.24 5.84 29.35 5.74 27.60 C 6.16 27.54 7.00 27.43 7.42 27.38 C 7.36 26.73 7.23 25.45 7.16 24.80 C 9.02 23.51 9.10 20.88 11.24 19.89 C 11.38 19.32 11.67 18.18 11.81 17.61 C 12.30 17.47 13.29 17.20 13.78 17.07 C 13.98 15.50 14.80 14.13 16.55 14.27 C 17.04 12.43 17.91 10.99 20.05 11.84 C 20.10 11.27 20.22 10.13 20.28 9.56 C 20.98 9.58 22.38 9.61 23.09 9.63 C 23.21 7.57 24.67 7.30 26.40 7.50 C 26.73 7.19 27.39 6.56 27.73 6.25 C 29.24 6.38 30.52 5.74 31.70 4.88 C 33.87 4.82 35.91 3.48 38.06 4.39 Z" />
<path fill="#4f5e2a" d=" M 51.97 16.10 C 51.88 14.12 51.78 12.14 52.03 10.17 C 52.73 12.09 53.30 14.05 53.86 16.02 C 54.14 15.11 54.70 13.29 54.99 12.39 L 56.09 12.97 L 55.26 14.34 C 57.97 15.08 55.53 18.11 55.46 19.89 L 54.11 19.85 C 52.57 19.73 51.02 19.65 49.48 19.57 C 50.29 19.36 51.92 18.93 52.74 18.71 C 52.54 18.49 52.16 18.06 51.97 17.84 C 50.41 16.76 49.72 15.42 49.89 13.82 C 50.41 14.39 51.45 15.53 51.97 16.10 Z" />
<path fill="#ee5a29" d=" M 51.97 17.84 C 52.16 18.06 52.54 18.49 52.74 18.71 C 51.92 18.93 50.29 19.36 49.48 19.57 C 51.02 19.65 52.57 19.73 54.11 19.85 C 54.69 20.40 55.84 21.51 56.42 22.06 C 56.41 22.54 56.39 23.50 56.38 23.98 C 54.82 26.37 52.82 28.60 52.15 31.45 C 49.93 30.59 47.59 30.81 45.37 31.52 C 46.07 30.16 46.78 28.79 47.46 27.41 C 47.54 26.28 47.64 25.15 47.77 24.02 C 48.16 22.22 48.83 20.45 48.70 18.57 C 49.99 18.81 51.08 18.56 51.97 17.84 Z" />
<path fill="#dedcd6" d=" M 54.11 19.85 L 55.46 19.89 C 58.29 19.74 61.16 19.43 63.96 20.11 C 64.00 20.98 64.09 22.70 64.13 23.57 C 61.97 23.46 59.82 23.30 57.66 23.10 C 57.35 22.84 56.73 22.32 56.42 22.06 C 55.84 21.51 54.69 20.40 54.11 19.85 Z" />
<path fill="#9ac374" d=" M 11.50 22.43 C 13.23 24.40 14.64 22.75 15.93 21.42 C 21.76 21.77 26.78 24.86 31.95 27.23 C 33.66 27.89 34.48 29.62 35.73 30.84 L 36.63 31.71 L 35.25 32.24 C 34.05 32.35 32.86 32.39 31.66 32.37 C 28.90 29.42 25.99 26.56 22.65 24.28 C 20.56 22.83 17.81 23.83 15.74 24.80 C 15.35 24.97 14.59 25.33 14.20 25.50 C 13.80 25.61 13.00 25.82 12.59 25.92 C 12.32 25.05 11.77 23.30 11.50 22.43 Z" />
<path fill="#ba9d71" d=" M 56.42 22.06 C 56.73 22.32 57.35 22.84 57.66 23.10 C 57.34 23.32 56.70 23.76 56.38 23.98 C 56.39 23.50 56.41 22.54 56.42 22.06 Z" />
<path fill="#9bc648" d=" M 15.74 24.80 C 17.81 23.83 20.56 22.83 22.65 24.28 C 25.99 26.56 28.90 29.42 31.66 32.37 C 30.52 32.24 28.24 31.98 27.10 31.85 L 26.21 30.99 C 25.24 30.04 24.29 29.07 23.38 28.06 C 21.83 25.23 18.47 25.76 15.76 25.64 L 15.74 24.80 Z" />
<path fill="#fefdf9" d=" M 57.66 23.10 C 59.82 23.30 61.97 23.46 64.13 23.57 C 63.79 29.48 67.43 34.49 68.06 40.22 C 68.69 44.74 68.68 49.31 68.74 53.86 C 66.22 52.26 63.71 50.57 60.83 49.67 C 58.24 48.08 55.78 46.30 53.28 44.57 C 52.98 40.24 53.51 35.94 54.58 31.74 C 53.97 31.67 52.75 31.53 52.15 31.45 C 52.82 28.60 54.82 26.37 56.38 23.98 C 56.70 23.76 57.34 23.32 57.66 23.10 Z" />
<path fill="#4f5e2a" d=" M 46.48 28.60 C 46.89 27.07 47.31 25.54 47.77 24.02 C 47.64 25.15 47.54 26.28 47.46 27.41 C 46.78 28.79 46.07 30.16 45.37 31.52 L 44.53 31.70 C 43.18 31.84 41.82 31.90 40.46 31.88 C 39.59 31.84 37.86 31.76 36.99 31.72 L 36.63 31.71 L 35.73 30.84 C 39.36 30.41 42.98 29.64 46.48 28.60 Z" />
<path fill="#85cc5c" d=" M 14.20 25.50 C 14.59 25.33 15.35 24.97 15.74 24.80 L 15.76 25.64 C 15.88 27.61 16.04 29.59 16.34 31.55 C 16.79 31.70 17.67 31.99 18.12 32.14 C 20.17 33.55 18.58 36.87 19.03 39.02 C 15.54 39.59 15.59 36.18 14.76 33.88 C 14.13 31.14 14.48 28.29 14.20 25.50 Z" />
<path fill="#c4d129" d=" M 15.76 25.64 C 18.47 25.76 21.83 25.23 23.38 28.06 C 21.82 28.19 20.25 28.32 18.69 28.44 C 18.51 29.68 18.31 30.91 18.12 32.14 C 17.67 31.99 16.79 31.70 16.34 31.55 C 16.04 29.59 15.88 27.61 15.76 25.64 Z" />
<path fill="#ffc808" d=" M 18.69 28.44 C 20.25 28.32 21.82 28.19 23.38 28.06 C 24.29 29.07 25.24 30.04 26.21 30.99 C 25.52 31.72 24.94 32.53 24.48 33.42 C 24.26 34.17 23.82 35.68 23.59 36.43 C 21.49 37.05 20.93 34.92 20.07 33.50 L 20.06 33.78 C 19.91 32.49 19.27 31.95 18.12 32.14 C 18.31 30.91 18.51 29.68 18.69 28.44 Z" />
<path fill="#f53b23" d=" M 45.37 31.52 C 47.59 30.81 49.93 30.59 52.15 31.45 C 52.08 34.42 51.78 37.37 51.51 40.33 C 49.50 39.48 47.33 38.83 45.62 37.42 C 44.75 35.66 44.88 33.59 44.53 31.70 L 45.37 31.52 Z" />
<path fill="#eed041" d=" M 24.48 33.42 C 24.94 32.53 25.52 31.72 26.21 30.99 L 27.10 31.85 C 27.87 33.66 28.56 35.52 29.41 37.30 L 27.91 37.80 C 26.98 36.18 25.90 34.65 24.48 33.42 Z" />
<path fill="#e2db2f" d=" M 27.10 31.85 C 28.24 31.98 30.52 32.24 31.66 32.37 C 32.86 32.39 34.05 32.35 35.25 32.24 C 32.81 33.80 31.79 36.52 31.06 39.19 C 30.53 38.54 29.97 37.92 29.41 37.30 C 28.56 35.52 27.87 33.66 27.10 31.85 Z" />
<path fill="#9b2716" d=" M 35.25 32.24 L 36.63 31.71 L 36.99 31.72 C 35.85 33.98 34.07 35.76 31.98 37.15 C 33.72 39.05 36.07 40.16 38.26 41.44 C 39.33 44.52 39.43 47.79 38.89 51.00 C 36.71 51.60 35.28 53.29 34.94 55.51 L 34.72 56.12 C 33.73 55.53 32.73 54.95 31.72 54.39 L 32.86 53.42 C 35.36 51.18 36.24 47.59 35.70 44.35 C 35.38 42.42 33.35 41.80 31.76 41.26 C 31.58 40.74 31.24 39.70 31.06 39.19 C 31.79 36.52 32.81 33.80 35.25 32.24 Z" />
<path fill="#f03b2b" d=" M 36.99 31.72 C 37.86 31.76 39.59 31.84 40.46 31.88 C 40.91 34.70 39.94 37.38 38.84 39.92 C 38.69 40.30 38.40 41.06 38.26 41.44 C 36.07 40.16 33.72 39.05 31.98 37.15 C 34.07 35.76 35.85 33.98 36.99 31.72 Z" />
<path fill="#e04615" d=" M 40.46 31.88 C 41.82 31.90 43.18 31.84 44.53 31.70 C 44.88 33.59 44.75 35.66 45.62 37.42 C 47.33 38.83 49.50 39.48 51.51 40.33 C 51.43 41.31 51.36 42.29 51.28 43.28 C 48.63 41.60 45.93 39.99 43.17 38.49 C 41.73 38.96 40.28 39.44 38.84 39.92 C 39.94 37.38 40.91 34.70 40.46 31.88 Z" />
<path fill="#cb5641" d=" M 52.15 31.45 C 52.75 31.53 53.97 31.67 54.58 31.74 C 53.51 35.94 52.98 40.24 53.28 44.57 C 52.78 44.25 51.78 43.60 51.28 43.28 C 51.36 42.29 51.43 41.31 51.51 40.33 C 51.78 37.37 52.08 34.42 52.15 31.45 Z" />
<path fill="#c9a03c" d=" M 20.06 33.78 L 20.07 33.50 C 20.93 34.92 21.49 37.05 23.59 36.43 C 24.37 36.93 25.13 37.44 25.88 37.98 C 23.93 38.30 21.97 38.59 20.06 39.10 C 19.96 37.33 19.98 35.55 20.06 33.78 Z" />
<path fill="#964d1b" d=" M 23.59 36.43 C 23.82 35.68 24.26 34.17 24.48 33.42 C 25.90 34.65 26.98 36.18 27.91 37.80 L 29.41 37.30 C 29.97 37.92 30.53 38.54 31.06 39.19 C 31.24 39.70 31.58 40.74 31.76 41.26 C 28.06 41.67 24.78 39.47 21.10 39.54 L 19.54 39.44 L 20.06 39.10 C 21.97 38.59 23.93 38.30 25.88 37.98 C 25.13 37.44 24.37 36.93 23.59 36.43 Z" />
<path fill="#ee9d42" d=" M 38.84 39.92 C 40.28 39.44 41.73 38.96 43.17 38.49 C 45.93 39.99 48.63 41.60 51.28 43.28 C 51.78 43.60 52.78 44.25 53.28 44.57 C 55.78 46.30 58.24 48.08 60.83 49.67 C 63.06 51.61 65.37 53.44 67.86 55.04 C 67.19 57.10 66.23 59.08 64.64 60.60 C 60.47 57.42 55.20 56.59 50.12 57.55 C 50.55 57.22 51.43 56.56 51.86 56.23 C 48.73 55.42 48.05 51.58 45.00 50.77 C 43.01 50.08 40.88 50.56 38.89 51.00 C 39.43 47.79 39.33 44.52 38.26 41.44 C 38.40 41.06 38.69 40.30 38.84 39.92 Z" />
<path fill="#8d2c23" d=" M 17.67 39.43 C 18.14 39.43 19.07 39.44 19.54 39.44 L 21.10 39.54 C 20.31 40.92 18.98 42.15 18.61 43.72 C 19.34 46.70 19.54 49.74 19.46 52.80 C 19.23 55.08 21.33 56.39 22.70 57.82 C 22.81 58.39 23.05 59.53 23.16 60.10 C 22.71 60.00 21.81 59.81 21.36 59.71 C 16.15 54.46 14.69 46.18 17.67 39.43 Z" />
<path fill="#a51c29" d=" M 21.10 39.54 C 24.78 39.47 28.06 41.67 31.76 41.26 C 33.35 41.80 35.38 42.42 35.70 44.35 C 36.24 47.59 35.36 51.18 32.86 53.42 C 30.72 51.09 27.62 51.26 24.94 52.38 C 24.74 52.92 24.34 53.99 24.14 54.53 C 23.69 55.64 23.21 56.74 22.70 57.82 C 21.33 56.39 19.23 55.08 19.46 52.80 C 19.54 49.74 19.34 46.70 18.61 43.72 C 18.98 42.15 20.31 40.92 21.10 39.54 Z" />
<path fill="#c2a3a5" d=" M 53.96 39.58 C 55.95 39.06 56.21 40.81 56.62 42.25 C 56.67 40.28 57.71 39.31 59.73 39.35 C 59.49 39.99 58.99 41.27 58.74 41.92 C 58.58 42.14 58.26 42.60 58.10 42.83 C 57.77 43.22 57.10 44.00 56.76 44.39 C 55.88 44.00 54.99 43.62 54.10 43.23 C 54.07 42.32 54.00 40.49 53.96 39.58 Z" />
<path fill="#eaacb8" d=" M 58.74 41.92 C 59.81 40.68 60.93 39.28 62.66 38.99 C 62.77 40.75 62.68 42.50 62.38 44.23 C 60.85 44.32 59.32 44.40 57.80 44.49 L 58.10 42.83 C 58.26 42.60 58.58 42.14 58.74 41.92 Z" />
<path fill="#997662" d=" M 63.47 39.72 C 64.10 40.51 64.46 41.43 64.54 42.45 C 64.94 42.60 65.74 42.90 66.14 43.05 C 65.35 43.23 63.75 43.60 62.95 43.78 C 63.10 42.42 63.27 41.07 63.47 39.72 Z" />
<path fill="#ffffff" d=" M 69.03 75.23 C 78.48 67.83 83.95 56.24 85.00 44.41 L 85.00 85.00 L 45.15 85.00 C 53.72 83.79 62.42 81.01 69.03 75.23 Z" />
<path fill="#ffffff" d=" M 0.00 44.92 C 1.24 55.29 5.45 65.59 13.26 72.74 C 20.07 79.66 29.45 83.29 38.86 85.00 L 0.00 85.00 L 0.00 44.92 Z" />
<path fill="#913338" d=" M 24.94 52.38 C 27.62 51.26 30.72 51.09 32.86 53.42 L 31.72 54.39 C 29.22 53.39 26.61 53.47 24.14 54.53 C 24.34 53.99 24.74 52.92 24.94 52.38 Z" />
<path fill="#b55f4f" d=" M 34.94 55.51 C 35.28 53.29 36.71 51.60 38.89 51.00 C 40.88 50.56 43.01 50.08 45.00 50.77 C 48.05 51.58 48.73 55.42 51.86 56.23 C 51.43 56.56 50.55 57.22 50.12 57.55 C 48.89 58.51 47.70 59.53 46.51 60.54 C 42.26 59.85 38.74 57.31 34.94 55.51 Z" />
<path fill="#e6a4a5" d=" M 24.14 54.53 C 26.61 53.47 29.22 53.39 31.72 54.39 C 32.73 54.95 33.73 55.53 34.72 56.12 C 33.52 57.00 32.26 57.80 31.00 58.58 C 30.16 57.05 28.90 54.00 26.67 55.50 C 25.45 56.99 24.46 58.66 23.16 60.10 C 23.05 59.53 22.81 58.39 22.70 57.82 C 23.21 56.74 23.69 55.64 24.14 54.53 Z" />
<path fill="#d3bbb1" d=" M 26.67 55.50 C 28.90 54.00 30.16 57.05 31.00 58.58 C 29.04 62.75 31.27 66.72 33.73 70.05 L 34.20 70.81 C 27.46 71.51 24.45 64.36 21.36 59.71 C 21.81 59.81 22.71 60.00 23.16 60.10 C 24.46 58.66 25.45 56.99 26.67 55.50 Z" />
<path fill="#997662" d=" M 34.72 56.12 L 34.94 55.51 C 38.74 57.31 42.26 59.85 46.51 60.54 C 46.93 61.37 47.36 62.21 47.78 63.04 C 44.66 62.72 40.31 62.64 38.63 65.83 C 37.98 67.46 38.26 69.26 38.16 70.97 C 36.68 70.66 35.21 70.35 33.73 70.05 C 31.27 66.72 29.04 62.75 31.00 58.58 C 32.26 57.80 33.52 57.00 34.72 56.12 Z" />
<path fill="#a99581" d=" M 46.51 60.54 C 47.70 59.53 48.89 58.51 50.12 57.55 C 55.20 56.59 60.47 57.42 64.64 60.60 C 63.53 65.31 59.98 69.17 55.06 69.81 C 53.32 66.91 50.78 64.59 47.78 63.04 C 47.36 62.21 46.93 61.37 46.51 60.54 Z" />
<path fill="#f1e8ea" d=" M 38.63 65.83 C 40.31 62.64 44.66 62.72 47.78 63.04 C 50.78 64.59 53.32 66.91 55.06 69.81 C 56.14 71.81 54.20 73.78 53.34 75.48 C 47.15 79.11 36.26 73.93 38.63 65.83 Z" />
</svg>
